<svg xmlns="http://www.w3.org/2000/svg" width="248" height="27.981" viewBox="0 0 248 27.981">
 <g transform="scale(.86601)">
  <g>
   <path d="m48.347 1.2968a37.62 37.62 0 0 1-6.5111 1.4705v0.9991c2.6 0.25 2.8597 0.38066 2.8597 3.1507v2.2395 16.919 0.069915 0.56157a2.65 2.65 0 0 0 0.081191 0.65855c0.36 2.53 1.84 3.7596 4.24 3.7596a4.08 4.08 0 0 0 1.7208-0.54804l2.9387-1.4705-0.37889-1.1412a5.71 5.71 0 0 1-2.4808 0.63148c-1 0-2.4196-0.57117-2.4696-3.7912v-23.509zm-30.751 1.3893c-9.54 0-16.299 5.8395-16.299 14.659 0 6.63 4.6198 13.951 15.21 13.951a36.24 36.24 0 0 0 7.7289-1.1795 47 47 0 0 0 2.3906-6.4705l-1.2585-0.46008c-2.14 4.15-4.4102 6.4592-8.5702 6.4592-6.3 0-10.801-5.3494-10.801-13.139 0-6.35 3.6597-12.21 10.51-12.21 4.32 0 6.9711 1.7104 8.1011 6.2404l1.3081-0.29093c-0.26-2.31-0.54859-4.0799-0.88859-6.4299a32.74 32.74 0 0 0-7.4312-1.1299zm54.901 0.049617c-5.5 0-8.8205 3.4804-8.8205 7.6004 0 4.62 4.0005 6.7598 7.0005 8.3198 3.15 1.68 5.3789 3.1705 5.3789 6.1705a4.57 4.57 0 0 1-4.9098 4.9211c-4.29 0-6.2596-4.3306-6.9396-6.9305l-1.2991 0.32927a50.42 50.42 0 0 0 1.1389 6.6396 14.22 14.22 0 0 0 2.1809 0.88182 13.37 13.37 0 0 0 4.1204 0.62923c5.71 0 9.4881-3.4901 9.4881-8.1101 0-4.62-3.8688-6.69-7.2688-8.41-3.4-1.72-5.3293-3.1493-5.3293-6.0893a4.34 4.34 0 0 1 4.5783-4.5309c3.54 0 4.7913 2.9792 5.5413 5.6292l1.2697-0.20974c-0.33-2.64-0.59102-4.319-0.75102-5.839a17.37 17.37 0 0 0-5.3789-1.0014zm12.379 3.5611-3.1101 2.8597v3.0604h-1.8899l-1.1299 1.2607 0.1714 0.45783h2.8484v12.192c0 3.36 1.5602 4.9978 4.3302 4.9978a4.08 4.08 0 0 0 1.7208-0.54804l2.9387-1.4705-0.36987-1.1412a5.75 5.75 0 0 1-2.4786 0.63148c-1.05 0-2.4808-0.58002-2.4808-3.94v-10.722h4.4091l1.2517-1.7185h-5.6608v-5.8006l-0.55029-0.11953zm28.139 0-3.1101 2.8597v3.0604h-1.89l-1.1299 1.2607 0.17141 0.45783h2.8484v12.192c0 3.36 1.5602 4.9978 4.3302 4.9978a4.08 4.08 0 0 0 1.7208-0.54804l2.9409-1.4705-0.36987-1.1412a5.75 5.75 0 0 1-2.4808 0.63148c-1.05 0-2.4808-0.58002-2.4808-3.94v-10.722h4.4114l1.2494-1.7185h-5.6608v-5.8006l-0.55029-0.11953zm-13.25 5.3699a19.09 19.09 0 0 0-6.4299 2.9409c-0.84 0.63-1.3802 1.0891-1.3802 1.7591a2.14 2.14 0 0 0 2.0005 1.8493 1.26 1.26 0 0 0 1.3396-0.9991 7.15 7.15 0 0 1 1.2201-2.8101 2.27 2.27 0 0 1 1.811-0.80063c2.02 0 3.3604 1.6811 3.3604 4.6211v0.83897c-0.92 0.77-4.0317 1.8895-6.5517 2.7695-2.27 0.76-3.3581 2.0204-3.3581 4.1204a5.19 5.19 0 0 0 5.1601 5.1692c1.18 0 3.1992-1.52 4.8692-2.65a3.82 3.82 0 0 0 0.9991 1.811 3.29 3.29 0 0 0 2.0614 0.83897l3.7889-2.1899-0.41949-1.1299a3.7 3.7 0 0 1-1.511 0.42174c-0.71 0-1.4299-0.59084-1.4299-2.4808v-7.65c0-2.25-0.44821-3.9903-1.9982-5.2503a5.69 5.69 0 0 0-3.5318-1.1795zm-64.47 0.049616a19.18 19.18 0 0 0-6.4389 2.8913c-0.84 0.63-1.3802 1.0891-1.3802 1.7591a2.14 2.14 0 0 0 2.0005 1.8493 1.27 1.27 0 0 0 1.3487-0.9991 7 7 0 0 1 1.2111-2.8101 2.27 2.27 0 0 1 1.811-0.80063c2.02 0 3.3581 1.6811 3.3581 4.6211v0.83897c-0.92 0.77-4.0294 1.8895-6.5494 2.7695-2.27 0.76-3.3604 2.0204-3.3604 4.1204a5.19 5.19 0 0 0 5.1195 5.1804c1.18 0 3.2005-1.52 4.8805-2.65a3.74 3.74 0 0 0 1.0014 1.8088 3.24 3.24 0 0 0 2.0794 0.82995l3.8092-2.1899-0.41949-1.1299a3.66 3.66 0 0 1-1.5088 0.42174c-0.71 0-1.4321-0.59084-1.4321-2.4808v-7.65c0-2.25-0.4482-3.9903-1.9982-5.2503a5.67 5.67 0 0 0-3.5318-1.1299zm92.761 0.049617a8.65 8.65 0 0 0-6.2201 3.0717 10.8 10.8 0 0 0-2.8101 7.3884c0 4.75 3.0202 8.9513 8.2702 8.9513 1.42 0 4.3605-0.76104 7.0005-4.161l-0.69012-0.92016a7 7 0 0 1-4.7903 2.0501c-2.94 0-6.0905-2.3507-6.1705-7.8507 4.87-0.17 10.122-0.58982 10.792-0.66982 0.83-0.17 0.9991-0.54927 0.9991-1.3893a6.53 6.53 0 0 0-6.3802-6.4705zm-0.90889 1.5516c2.19 0 3.489 2.059 3.489 4.249 0 0.63-0.2791 0.83897-0.9991 0.83897-2.31 0.12-4.4908 0.12179-6.7208 0.12179 0.55-3.4 2.381-5.2298 4.231-5.2098zm-89.962 7.2192v6.59a5.05 5.05 0 0 1-3.0695 1.3487 3 3 0 0 1-2.889-3.189c0-1.56 0.87896-2.3095 2.429-3.0695 0.93-0.42 2.6496-1.2202 3.5296-1.6802zm64.49 0v6.59a5.08 5.08 0 0 1-3.0695 1.3487 3 3 0 0 1-2.9003-3.189c0-1.56 0.89024-2.3095 2.4402-3.0695 0.92-0.42 2.6495-1.2202 3.5295-1.6802z" fill="#00244e"/>
   <path d="m189.88 1.2968a38.05 38.05 0 0 1-6.5088 1.4705v0.9991c2.6 0.25 2.8484 0.38066 2.8484 3.1507v2.2395 17.551a2.63 2.63 0 0 0 0.09021 0.65855c0.36 2.53 1.84 3.7596 4.24 3.7596a4.16 4.16 0 0 0 1.7208-0.54804l2.9387-1.4705-0.37889-1.1412a5.71 5.71 0 0 1-2.4808 0.63148c-0.99999 0-2.4296-0.57117-2.4696-3.7912v-23.509zm9.5309 0a37.62 37.62 0 0 1-6.5111 1.4705v0.9991c2.6 0.25 2.8597 0.38066 2.8597 3.1507v2.2395 16.919 0.069915 0.56157a2.65 2.65 0 0 0 0.08119 0.65855c0.36 2.53 1.84 3.7596 4.24 3.7596a4.08 4.08 0 0 0 1.7186-0.54804l2.9409-1.4705-0.37889-1.1412a5.66 5.66 0 0 1-2.4718 0.63148c-1 0-2.4286-0.57117-2.4786-3.7912v-23.509zm-55.02 2.0005v1.2788c3.23 0.25 3.5702 0.46142 3.5702 4.1114v16.509c0 3.7-0.38036 3.9494-3.6604 4.1994v1.2201h11.73v-1.2201c-3.78-0.29-4.1588-0.49938-4.1588-4.1994v-7.429h4.2084c3.78 0 4.0309 0.45981 4.5309 3.3198h1.2607v-8.1101h-1.2607c-0.53 2.69-0.75091 3.0604-4.5309 3.0604h-4.2084v-9.8218c0-1.27 0.16987-1.3893 1.4299-1.3893h2.9996c3 0 3.9998 0.33046 4.6798 1.4705a9.43 9.43 0 0 1 1.2607 3.3987l1.2991-0.18945c-0.16-2.05-0.36949-4.8289-0.41949-6.2089h-18.73zm96.719 2.9996-3.1078 2.8597v3.0604h-1.8922l-1.1299 1.2607 0.17141 0.45783h2.8507v12.192c0 3.36 1.5579 4.9978 4.3279 4.9978a4.08 4.08 0 0 0 1.7208-0.54804l2.9206-1.4705-0.38114-1.1412a5.66 5.66 0 0 1-2.4696 0.63148c-1.06 0-2.4808-0.58002-2.4808-3.94v-10.722h4.4114l1.2494-1.7185h-5.6405v-5.8006l-0.55029-0.11953zm30 5.2797a30.53 30.53 0 0 1-6.1683 1.7208v1.0194c2.22 0.42 2.4786 0.549 2.4786 3.189v8.701c0 2.77-0.22956 2.9792-2.9996 3.2792v1.1818h9.2896v-1.1322c-2.36-0.24-2.6094-0.41862-2.6094-3.2386v-9.9707a7.15 7.15 0 0 1 4.3302-2.0005c2.56 0 3.6491 1.6707 3.6491 4.6707v7.0005c0 2.94-0.28871 3.239-2.6387 3.489v1.1299l8.9197 0.051872v-1.1322c-2.39-0.3-2.641-0.41862-2.641-3.2386v-8.1507c0-4.08-2.0595-6.4299-5.4195-6.4299a6.11 6.11 0 0 0-3.419 1.2494c-1.05 0.67-1.9318 1.3005-2.7718 1.9305v-3.3198zm-44.139 0.040596a28 28 0 0 1-6.2201 1.6802v0.9788c2.31 0.38 2.5192 0.50126 2.5192 3.1913v8.7799c0 2.73-0.28845 2.9886-2.8484 3.2386v1.1818h10v-1.1322c-3.24-0.24-3.4506-0.50862-3.4506-3.2386v-7.7808c0.88-2.22 2.1507-3.3198 3.1507-3.3198a2.53 2.53 0 0 1 1.8494 0.84123 1 1 0 0 0 1.1299 0.12855 2.53 2.53 0 0 0 1.4704-2.2688 2.39 2.39 0 0 0-2.5214-2.1809c-1.94 0-3.7 2.2197-5 4.4497l-0.07894-0.009021v-4.5399zm-13.23 0.099233a8.67 8.67 0 0 0-6.2111 3.0604 10.79 10.79 0 0 0-2.8191 7.3997c0 4.74 3.0292 8.949 8.2792 8.949 1.41 0 4.3505-0.75878 7.0005-4.1588l-0.69013-0.92918a7 7 0 0 1-4.7903 2.0591c-2.94 0-6.0895-2.3507-6.1795-7.8507 4.88-0.17 10.131-0.58885 10.801-0.67885 0.83-0.16 0.9991-0.54025 0.9991-1.3802a6.54 6.54 0 0 0-6.3893-6.4705zm41.928 0c-3.99 0-9.3685 3.1896-9.3685 10.12a9.13 9.13 0 0 0 9.3505 9.2513c4.28 0 9.1994-3.2 9.1994-10a9.15 9.15 0 0 0-9.1813-9.3708zm-85.239 0.25936a55.47 55.47 0 0 1-6.3893 0.75102v0.9991c2.4 0.42 2.5688 0.59032 2.5688 2.9003v8.2815c0 4.41 2.3104 6.2179 5.2504 6.2179a6.32 6.32 0 0 0 3.3198-1.0983 26.94 26.94 0 0 0 2.9003-2.0613v2.9003l0.29093 0.25936a51.2 51.2 0 0 1 6.4299-1.5178l0.03834-1.0916-1.0983-0.078936c-1.59-0.13-1.9305-0.42105-1.9305-2.571v-13.89a48.12 48.12 0 0 1-6.8494 0.75102v0.9991c2.95 0.38 3.1597 0.55032 3.1597 2.9003v9.8715a6 6 0 0 1-4.2512 1.8899c-1.8 0-3.5702-1.0015-3.5702-4.5715v-5.7194c0-2.8 8.1e-4 -4.8009 0.13081-6.1209zm84.75 1.1705c3.49 0 5.3812 3.86 5.3812 8.94 0 5.84-2.062 7.6094-4.452 7.6094-3.36 0-5.4984-3.95-5.4984-9.24 0-4.79 2.1392-7.3094 4.5692-7.3094zm-42.33 0.11953c2.18 0 3.4799 2.06 3.4799 4.24 0 0.64-0.2891 0.85025-0.9991 0.85025-2.31 0.12-4.5008 0.11953-6.7208 0.11953 0.54-3.4 2.35-5.1798 4.24-5.2098z" fill="#ff7900"/>
  </g>
 </g>
</svg>